<mxfile host="Electron" modified="2025-03-23T11:42:40.572Z" agent="Mozilla/5.0 (Macintosh; Intel Mac OS X 10_15_7) AppleWebKit/537.36 (KHTML, like Gecko) draw.io/24.4.13 Chrome/124.0.6367.207 Electron/30.0.6 Safari/537.36" etag="UZU1qFgtCLuY_5N4JRmn" version="24.4.13" type="device">
  <diagram name="Page-1" id="khJXae0Xs6FLn2M3-l4K">
    <mxGraphModel dx="1434" dy="750" grid="1" gridSize="10" guides="1" tooltips="1" connect="1" arrows="1" fold="1" page="1" pageScale="1" pageWidth="827" pageHeight="1169" math="0" shadow="0">
      <root>
        <mxCell id="0" />
        <mxCell id="1" parent="0" />
        <mxCell id="6CxVYX31mGpQLbkELAEX-1" value="backend" style="shape=cylinder3;whiteSpace=wrap;html=1;boundedLbl=1;backgroundOutline=1;size=15;" vertex="1" parent="1">
          <mxGeometry x="690" y="290" width="60" height="80" as="geometry" />
        </mxCell>
        <mxCell id="6CxVYX31mGpQLbkELAEX-3" value="front-end" style="shape=callout;whiteSpace=wrap;html=1;perimeter=calloutPerimeter;" vertex="1" parent="1">
          <mxGeometry x="80" y="310" width="120" height="80" as="geometry" />
        </mxCell>
        <mxCell id="6CxVYX31mGpQLbkELAEX-4" value="дані з +" style="rounded=1;whiteSpace=wrap;html=1;" vertex="1" parent="1">
          <mxGeometry x="90" y="440" width="120" height="60" as="geometry" />
        </mxCell>
        <mxCell id="6CxVYX31mGpQLbkELAEX-5" value="" style="endArrow=classic;startArrow=classic;html=1;rounded=0;entryX=0.842;entryY=0.65;entryDx=0;entryDy=0;entryPerimeter=0;exitX=0.75;exitY=0;exitDx=0;exitDy=0;" edge="1" parent="1" source="6CxVYX31mGpQLbkELAEX-4" target="6CxVYX31mGpQLbkELAEX-3">
          <mxGeometry width="50" height="50" relative="1" as="geometry">
            <mxPoint x="390" y="410" as="sourcePoint" />
            <mxPoint x="440" y="360" as="targetPoint" />
          </mxGeometry>
        </mxCell>
        <mxCell id="6CxVYX31mGpQLbkELAEX-6" style="edgeStyle=orthogonalEdgeStyle;rounded=0;orthogonalLoop=1;jettySize=auto;html=1;exitX=1;exitY=0.5;exitDx=0;exitDy=0;entryX=0.5;entryY=1;entryDx=0;entryDy=0;entryPerimeter=0;" edge="1" parent="1" source="6CxVYX31mGpQLbkELAEX-4" target="6CxVYX31mGpQLbkELAEX-1">
          <mxGeometry relative="1" as="geometry" />
        </mxCell>
        <mxCell id="6CxVYX31mGpQLbkELAEX-8" value="api запит до open-meteor" style="rounded=1;whiteSpace=wrap;html=1;" vertex="1" parent="1">
          <mxGeometry x="660" y="120" width="120" height="60" as="geometry" />
        </mxCell>
        <mxCell id="6CxVYX31mGpQLbkELAEX-10" value="" style="endArrow=classic;startArrow=classic;html=1;rounded=0;entryX=0.5;entryY=1;entryDx=0;entryDy=0;exitX=0.5;exitY=0;exitDx=0;exitDy=0;exitPerimeter=0;" edge="1" parent="1" source="6CxVYX31mGpQLbkELAEX-1" target="6CxVYX31mGpQLbkELAEX-8">
          <mxGeometry width="50" height="50" relative="1" as="geometry">
            <mxPoint x="390" y="410" as="sourcePoint" />
            <mxPoint x="440" y="360" as="targetPoint" />
          </mxGeometry>
        </mxCell>
        <mxCell id="6CxVYX31mGpQLbkELAEX-11" value="дані про погоду" style="rounded=1;whiteSpace=wrap;html=1;" vertex="1" parent="1">
          <mxGeometry x="360" y="300" width="120" height="60" as="geometry" />
        </mxCell>
        <mxCell id="6CxVYX31mGpQLbkELAEX-12" value="" style="endArrow=classic;html=1;rounded=0;entryX=1;entryY=0.5;entryDx=0;entryDy=0;exitX=0;exitY=0.5;exitDx=0;exitDy=0;exitPerimeter=0;" edge="1" parent="1" source="6CxVYX31mGpQLbkELAEX-1" target="6CxVYX31mGpQLbkELAEX-11">
          <mxGeometry width="50" height="50" relative="1" as="geometry">
            <mxPoint x="390" y="410" as="sourcePoint" />
            <mxPoint x="440" y="360" as="targetPoint" />
          </mxGeometry>
        </mxCell>
        <mxCell id="6CxVYX31mGpQLbkELAEX-13" style="edgeStyle=orthogonalEdgeStyle;rounded=0;orthogonalLoop=1;jettySize=auto;html=1;entryX=0;entryY=0;entryDx=120;entryDy=25;entryPerimeter=0;" edge="1" parent="1" source="6CxVYX31mGpQLbkELAEX-11" target="6CxVYX31mGpQLbkELAEX-3">
          <mxGeometry relative="1" as="geometry" />
        </mxCell>
      </root>
    </mxGraphModel>
  </diagram>
</mxfile>
